<?xml version="1.0" standalone="no"?>
<!DOCTYPE svg PUBLIC "-//W3C//DTD SVG 20010904//EN"
 "http://www.w3.org/TR/2001/REC-SVG-20010904/DTD/svg10.dtd">
<svg version="1.0" xmlns="http://www.w3.org/2000/svg"
 width="700.000000pt" height="700.000000pt" viewBox="0 0 700.000000 700.000000"
 preserveAspectRatio="xMidYMid meet">
<metadata>
Created by potrace 1.11, written by Peter Selinger 2001-2013
</metadata>
<g transform="translate(0.000000,700.000000) scale(0.100000,-0.100000)"
fill="#000000" stroke="none">
<path d="M0 3500 l0 -3500 3500 0 3500 0 0 3500 0 3500 -3500 0 -3500 0 0
-3500z m1290 820 l0 -560 645 0 645 0 0 560 0 560 250 0 250 0 0 -1390 0
-1390 -247 2 -248 3 -3 611 -2 611 -143 6 c-78 4 -368 7 -644 7 l-503 0 -2
-617 -3 -618 -245 0 -245 0 -3 1388 -2 1387 250 0 250 0 0 -560z m3720 537
c126 -23 309 -72 384 -103 316 -131 534 -329 680 -617 93 -182 128 -358 129
-637 0 -365 -81 -611 -287 -866 -244 -303 -637 -487 -1118 -524 -73 -5 -352
-10 -620 -10 l-488 0 0 1391 0 1390 613 -4 c522 -3 626 -6 707 -20z"/>
<path d="M4190 3502 l0 -962 258 0 c385 0 544 27 747 125 261 126 419 340 465
629 15 96 13 336 -4 433 -59 329 -259 559 -576 663 -132 43 -296 61 -602 67
l-288 6 0 -961z"/>
</g>
</svg>
